<svg width="286" height="72" viewBox="0 0 286 72" fill="none" xmlns="http://www.w3.org/2000/svg">
<path d="M31.3153 0.181816V70H16.554V14.1932H16.1449L0.15625 24.2159V11.125L17.4403 0.181816H31.3153ZM43.5182 70V0.181816H58.0409V26.4318H58.4841C59.1205 25.0227 60.0409 23.5909 61.2455 22.1364C62.4727 20.6591 64.0636 19.4318 66.0182 18.4545C67.9955 17.4545 70.45 16.9545 73.3818 16.9545C77.2 16.9545 80.7227 17.9545 83.95 19.9545C87.1773 21.9318 89.7568 24.9205 91.6886 28.9205C93.6205 32.8977 94.5864 37.8864 94.5864 43.8864C94.5864 49.7273 93.6432 54.6591 91.7568 58.6818C89.8932 62.6818 87.3477 65.7159 84.1205 67.7841C80.9159 69.8295 77.325 70.8523 73.3477 70.8523C70.5295 70.8523 68.1318 70.3864 66.1545 69.4545C64.2 68.5227 62.5977 67.3523 61.3477 65.9432C60.0977 64.5114 59.1432 63.0682 58.4841 61.6136H57.8364V70H43.5182ZM57.7341 43.8182C57.7341 46.9318 58.1659 49.6477 59.0295 51.9659C59.8932 54.2841 61.1432 56.0909 62.7795 57.3864C64.4159 58.6591 66.4045 59.2955 68.7455 59.2955C71.1091 59.2955 73.1091 58.6477 74.7455 57.3523C76.3818 56.0341 77.6205 54.2159 78.4614 51.8977C79.325 49.5568 79.7568 46.8636 79.7568 43.8182C79.7568 40.7955 79.3364 38.1364 78.4955 35.8409C77.6545 33.5455 76.4159 31.75 74.7795 30.4545C73.1432 29.1591 71.1318 28.5114 68.7455 28.5114C66.3818 28.5114 64.3818 29.1364 62.7455 30.3864C61.1318 31.6364 59.8932 33.4091 59.0295 35.7045C58.1659 38 57.7341 40.7045 57.7341 43.8182ZM123.136 71.0227C117.84 71.0227 113.261 69.8977 109.397 67.6477C105.556 65.375 102.59 62.2159 100.499 58.1705C98.4085 54.1023 97.3631 49.3864 97.3631 44.0227C97.3631 38.6136 98.4085 33.8864 100.499 29.8409C102.59 25.7727 105.556 22.6136 109.397 20.3636C113.261 18.0909 117.84 16.9545 123.136 16.9545C128.431 16.9545 132.999 18.0909 136.84 20.3636C140.704 22.6136 143.681 25.7727 145.772 29.8409C147.863 33.8864 148.909 38.6136 148.909 44.0227C148.909 49.3864 147.863 54.1023 145.772 58.1705C143.681 62.2159 140.704 65.375 136.84 67.6477C132.999 69.8977 128.431 71.0227 123.136 71.0227ZM123.204 59.7727C125.613 59.7727 127.624 59.0909 129.238 57.7273C130.852 56.3409 132.068 54.4545 132.886 52.0682C133.727 49.6818 134.147 46.9659 134.147 43.9205C134.147 40.875 133.727 38.1591 132.886 35.7727C132.068 33.3864 130.852 31.5 129.238 30.1136C127.624 28.7273 125.613 28.0341 123.204 28.0341C120.772 28.0341 118.727 28.7273 117.068 30.1136C115.431 31.5 114.193 33.3864 113.352 35.7727C112.534 38.1591 112.124 40.875 112.124 43.9205C112.124 46.9659 112.534 49.6818 113.352 52.0682C114.193 54.4545 115.431 56.3409 117.068 57.7273C118.727 59.0909 120.772 59.7727 123.204 59.7727ZM168.484 70.9886C165.143 70.9886 162.165 70.4091 159.552 69.25C156.938 68.0682 154.87 66.3295 153.347 64.0341C151.847 61.7159 151.097 58.8295 151.097 55.375C151.097 52.4659 151.631 50.0227 152.699 48.0455C153.768 46.0682 155.222 44.4773 157.063 43.2727C158.904 42.0682 160.995 41.1591 163.336 40.5455C165.699 39.9318 168.177 39.5 170.768 39.25C173.813 38.9318 176.268 38.6364 178.131 38.3636C179.995 38.0682 181.347 37.6364 182.188 37.0682C183.029 36.5 183.449 35.6591 183.449 34.5455V34.3409C183.449 32.1818 182.768 30.5114 181.404 29.3295C180.063 28.1477 178.154 27.5568 175.677 27.5568C173.063 27.5568 170.984 28.1364 169.438 29.2955C167.893 30.4318 166.87 31.8636 166.37 33.5909L152.938 32.5C153.62 29.3182 154.961 26.5682 156.961 24.25C158.961 21.9091 161.54 20.1136 164.699 18.8636C167.881 17.5909 171.563 16.9545 175.745 16.9545C178.654 16.9545 181.438 17.2955 184.097 17.9773C186.779 18.6591 189.154 19.7159 191.222 21.1477C193.313 22.5795 194.961 24.4205 196.165 26.6705C197.37 28.8977 197.972 31.5682 197.972 34.6818V70H184.199V62.7386H183.79C182.949 64.375 181.824 65.8182 180.415 67.0682C179.006 68.2955 177.313 69.2614 175.336 69.9659C173.359 70.6477 171.074 70.9886 168.484 70.9886ZM172.643 60.9659C174.779 60.9659 176.665 60.5455 178.302 59.7045C179.938 58.8409 181.222 57.6818 182.154 56.2273C183.086 54.7727 183.552 53.125 183.552 51.2841V45.7273C183.097 46.0227 182.472 46.2955 181.677 46.5455C180.904 46.7727 180.029 46.9886 179.052 47.1932C178.074 47.375 177.097 47.5455 176.12 47.7045C175.143 47.8409 174.256 47.9659 173.461 48.0795C171.756 48.3295 170.268 48.7273 168.995 49.2727C167.722 49.8182 166.734 50.5568 166.029 51.4886C165.324 52.3977 164.972 53.5341 164.972 54.8977C164.972 56.875 165.688 58.3864 167.12 59.4318C168.574 60.4545 170.415 60.9659 172.643 60.9659ZM204.439 70V17.6364H218.519V26.7727H219.064C220.019 23.5227 221.621 21.0682 223.871 19.4091C226.121 17.7273 228.712 16.8864 231.644 16.8864C232.371 16.8864 233.155 16.9318 233.996 17.0227C234.837 17.1136 235.576 17.2386 236.212 17.3977V30.2841C235.53 30.0795 234.587 29.8977 233.382 29.7386C232.178 29.5795 231.076 29.5 230.076 29.5C227.939 29.5 226.03 29.9659 224.348 30.8977C222.689 31.8068 221.371 33.0795 220.394 34.7159C219.439 36.3523 218.962 38.2386 218.962 40.375V70H204.439ZM255.778 70.8523C251.801 70.8523 248.199 69.8295 244.972 67.7841C241.767 65.7159 239.222 62.6818 237.335 58.6818C235.472 54.6591 234.54 49.7273 234.54 43.8864C234.54 37.8864 235.506 32.8977 237.438 28.9205C239.369 24.9205 241.938 21.9318 245.142 19.9545C248.369 17.9545 251.903 16.9545 255.744 16.9545C258.676 16.9545 261.119 17.4545 263.074 18.4545C265.051 19.4318 266.642 20.6591 267.847 22.1364C269.074 23.5909 270.006 25.0227 270.642 26.4318H271.085V0.181816H285.574V70H271.256V61.6136H270.642C269.96 63.0682 268.994 64.5114 267.744 65.9432C266.517 67.3523 264.915 68.5227 262.938 69.4545C260.983 70.3864 258.597 70.8523 255.778 70.8523ZM260.381 59.2955C262.722 59.2955 264.699 58.6591 266.312 57.3864C267.949 56.0909 269.199 54.2841 270.062 51.9659C270.949 49.6477 271.392 46.9318 271.392 43.8182C271.392 40.7045 270.96 38 270.097 35.7045C269.233 33.4091 267.983 31.6364 266.347 30.3864C264.71 29.1364 262.722 28.5114 260.381 28.5114C257.994 28.5114 255.983 29.1591 254.347 30.4545C252.71 31.75 251.472 33.5455 250.631 35.8409C249.79 38.1364 249.369 40.7955 249.369 43.8182C249.369 46.8636 249.79 49.5568 250.631 51.8977C251.494 54.2159 252.733 56.0341 254.347 57.3523C255.983 58.6477 257.994 59.2955 260.381 59.2955Z" fill="black"/>
</svg>
