<svg width="341" height="276" viewBox="0 0 341 276" fill="none" xmlns="http://www.w3.org/2000/svg">
<g clip-path="url(#clip0_152_55)">
<path d="M45.5859 273.633H298.359C325.195 273.633 340.43 258.281 340.43 228.516V73.0078C340.43 43.125 325.078 27.8906 294.844 27.8906H148.945C137.93 27.8906 131.953 25.5469 124.102 18.75L115.195 11.25C105.234 2.57812 98.0859 0 82.9688 0H39.9609C14.2969 0 0 14.1797 0 42.8906V228.516C0 258.398 15.3516 273.633 45.5859 273.633ZM46.0547 252.891C29.6484 252.891 20.7422 244.219 20.7422 227.344V44.1797C20.7422 28.4766 28.8281 20.625 44.0625 20.625H77.8125C88.5938 20.625 94.4531 22.9688 102.422 30L111.328 37.5C120.938 45.8203 128.672 48.6328 143.789 48.6328H294.492C310.547 48.6328 319.688 57.3047 319.688 74.0625V227.461C319.688 244.219 310.547 252.891 294.492 252.891H46.0547ZM12.5391 104.18H328.008V84.6094H12.5391V104.18Z" fill="black" fill-opacity="0.85"/>
</g>
<defs>
<clipPath id="clip0_152_55">
<rect width="340.43" height="275.273" fill="white"/>
</clipPath>
</defs>
</svg>
