<svg width="375" height="281" viewBox="0 0 375 281" fill="none" xmlns="http://www.w3.org/2000/svg">
<g clip-path="url(#clip0_152_71)">
<path d="M294.961 257.695C339.609 257.695 374.414 225.469 374.414 184.922C374.414 153.867 356.836 126.68 327.07 114.961C327.891 48.3984 280.312 0 219.609 0C178.477 0 149.766 22.2656 132.422 49.1016C95.8594 37.2656 55.5469 65.3906 55.0781 107.344C21.4453 112.031 0 141.445 0 177.891C0 221.602 37.9688 257.578 88.4766 257.578L294.961 257.695ZM294.844 236.953L88.3594 236.836C49.5703 236.836 20.7422 210 20.7422 177.891C20.7422 147.422 39.1406 123.516 71.25 123.516C73.125 123.516 73.9453 122.461 73.9453 120.586C73.9453 75.3516 107.578 59.5312 138.984 70.5469C140.742 71.1328 141.797 70.7812 142.734 69.1406C157.5 42.8906 180.234 20.7422 219.609 20.7422C269.062 20.7422 304.102 60 306.914 106.289C307.383 112.734 306.914 120.352 306.445 127.148C306.328 128.906 307.031 130.078 308.672 130.43C336.094 136.875 353.672 157.5 353.672 184.922C353.672 214.102 328.008 236.953 294.844 236.953Z" fill="black" fill-opacity="0.85"/>
</g>
<defs>
<clipPath id="clip0_152_71">
<rect width="374.414" height="280.195" fill="white"/>
</clipPath>
</defs>
</svg>
