<svg width="1949" height="306" viewBox="0 0 1949 306" fill="none" xmlns="http://www.w3.org/2000/svg">
<path d="M623.923 43.8182V262H577.794V87.6037H576.515L526.551 118.925V78.0156L580.564 43.8182H623.923ZM662.057 262V43.8182H707.44V125.849H708.825C710.814 121.446 713.69 116.972 717.455 112.426C721.29 107.81 726.261 103.974 732.369 100.92C738.548 97.7955 746.219 96.233 755.381 96.233C767.313 96.233 778.321 99.358 788.406 105.608C798.491 111.787 806.553 121.126 812.589 133.626C818.626 146.055 821.645 161.645 821.645 180.395C821.645 198.648 818.697 214.06 812.803 226.631C806.979 239.131 799.024 248.612 788.939 255.075C778.925 261.467 767.703 264.663 755.274 264.663C746.467 264.663 738.974 263.207 732.795 260.295C726.688 257.384 721.68 253.726 717.774 249.322C713.868 244.848 710.885 240.338 708.825 235.793H706.801V262H662.057ZM706.482 180.182C706.482 189.912 707.831 198.399 710.53 205.643C713.229 212.888 717.135 218.534 722.249 222.582C727.362 226.56 733.577 228.548 740.892 228.548C748.278 228.548 754.528 226.524 759.642 222.476C764.756 218.357 768.626 212.675 771.254 205.43C773.953 198.115 775.303 189.699 775.303 180.182C775.303 170.736 773.989 162.426 771.361 155.253C768.733 148.08 764.862 142.469 759.749 138.42C754.635 134.372 748.349 132.348 740.892 132.348C733.506 132.348 727.256 134.301 722.142 138.207C717.099 142.114 713.229 147.653 710.53 154.827C707.831 162 706.482 170.452 706.482 180.182ZM910.862 265.196C894.314 265.196 880.002 261.68 867.929 254.649C855.926 247.547 846.657 237.675 840.123 225.033C833.589 212.32 830.322 197.582 830.322 180.821C830.322 163.918 833.589 149.145 840.123 136.503C846.657 123.79 855.926 113.918 867.929 106.886C880.002 99.7841 894.314 96.233 910.862 96.233C927.41 96.233 941.686 99.7841 953.689 106.886C965.762 113.918 975.066 123.79 981.6 136.503C988.135 149.145 991.402 163.918 991.402 180.821C991.402 197.582 988.135 212.32 981.6 225.033C975.066 237.675 965.762 247.547 953.689 254.649C941.686 261.68 927.41 265.196 910.862 265.196ZM911.075 230.04C918.603 230.04 924.889 227.909 929.931 223.648C934.974 219.315 938.774 213.42 941.331 205.963C943.958 198.506 945.272 190.018 945.272 180.501C945.272 170.984 943.958 162.497 941.331 155.04C938.774 147.582 934.974 141.687 929.931 137.355C924.889 133.023 918.603 130.857 911.075 130.857C903.475 130.857 897.083 133.023 891.899 137.355C886.785 141.687 882.914 147.582 880.287 155.04C877.73 162.497 876.451 170.984 876.451 180.501C876.451 190.018 877.73 198.506 880.287 205.963C882.914 213.42 886.785 219.315 891.899 223.648C897.083 227.909 903.475 230.04 911.075 230.04ZM1052.57 265.089C1042.13 265.089 1032.83 263.278 1024.66 259.656C1016.49 255.963 1010.03 250.53 1005.27 243.357C1000.58 236.112 998.241 227.092 998.241 216.297C998.241 207.206 999.91 199.571 1003.25 193.392C1006.59 187.213 1011.13 182.241 1016.88 178.477C1022.64 174.713 1029.17 171.872 1036.49 169.955C1043.87 168.037 1051.61 166.688 1059.71 165.906C1069.23 164.912 1076.9 163.989 1082.72 163.136C1088.55 162.213 1092.77 160.864 1095.4 159.088C1098.03 157.312 1099.34 154.685 1099.34 151.205V150.565C1099.34 143.818 1097.21 138.598 1092.95 134.905C1088.76 131.212 1082.79 129.365 1075.05 129.365C1066.88 129.365 1060.39 131.176 1055.56 134.798C1050.73 138.349 1047.53 142.824 1045.97 148.222L1003.99 144.812C1006.12 134.869 1010.31 126.276 1016.56 119.031C1022.81 111.716 1030.88 106.105 1040.75 102.199C1050.69 98.2216 1062.2 96.233 1075.27 96.233C1084.36 96.233 1093.06 97.2983 1101.37 99.429C1109.75 101.56 1117.17 104.862 1123.63 109.337C1130.17 113.811 1135.31 119.564 1139.08 126.595C1142.84 133.555 1144.73 141.901 1144.73 151.631V262H1101.69V239.308H1100.41C1097.78 244.422 1094.26 248.932 1089.86 252.838C1085.46 256.673 1080.17 259.692 1073.99 261.893C1067.81 264.024 1060.67 265.089 1052.57 265.089ZM1065.57 233.768C1072.25 233.768 1078.14 232.455 1083.26 229.827C1088.37 227.128 1092.38 223.506 1095.29 218.96C1098.21 214.415 1099.66 209.266 1099.66 203.513V186.148C1098.24 187.071 1096.29 187.923 1093.8 188.705C1091.39 189.415 1088.65 190.089 1085.6 190.729C1082.55 191.297 1079.49 191.83 1076.44 192.327C1073.38 192.753 1070.61 193.143 1068.13 193.499C1062.8 194.28 1058.15 195.523 1054.17 197.227C1050.19 198.932 1047.1 201.24 1044.9 204.152C1042.7 206.993 1041.6 210.544 1041.6 214.805C1041.6 220.984 1043.84 225.707 1048.31 228.974C1052.86 232.17 1058.61 233.768 1065.57 233.768ZM1164.94 262V98.3636H1208.93V126.915H1210.64C1213.62 116.759 1218.63 109.088 1225.66 103.903C1232.69 98.6477 1240.79 96.0199 1249.95 96.0199C1252.22 96.0199 1254.67 96.1619 1257.3 96.446C1259.93 96.7301 1262.24 97.1207 1264.22 97.6179V137.888C1262.09 137.249 1259.15 136.68 1255.38 136.183C1251.62 135.686 1248.17 135.438 1245.05 135.438C1238.37 135.438 1232.41 136.893 1227.15 139.805C1221.97 142.646 1217.85 146.624 1214.79 151.737C1211.81 156.851 1210.32 162.746 1210.32 169.422V262H1164.94ZM1325.37 264.663C1312.94 264.663 1301.68 261.467 1291.6 255.075C1281.58 248.612 1273.63 239.131 1267.74 226.631C1261.91 214.06 1259 198.648 1259 180.395C1259 161.645 1262.02 146.055 1268.05 133.626C1274.09 121.126 1282.12 111.787 1292.13 105.608C1302.22 99.358 1313.26 96.233 1325.26 96.233C1334.43 96.233 1342.06 97.7955 1348.17 100.92C1354.35 103.974 1359.32 107.81 1363.08 112.426C1366.92 116.972 1369.83 121.446 1371.82 125.849H1373.2V43.8182H1418.48V262H1373.74V235.793H1371.82C1369.69 240.338 1366.67 244.848 1362.76 249.322C1358.93 253.726 1353.92 257.384 1347.74 260.295C1341.63 263.207 1334.18 264.663 1325.37 264.663ZM1339.75 228.548C1347.07 228.548 1353.25 226.56 1358.29 222.582C1363.4 218.534 1367.31 212.888 1370.01 205.643C1372.78 198.399 1374.16 189.912 1374.16 180.182C1374.16 170.452 1372.81 162 1370.11 154.827C1367.42 147.653 1363.51 142.114 1358.4 138.207C1353.28 134.301 1347.07 132.348 1339.75 132.348C1332.29 132.348 1326.01 134.372 1320.9 138.42C1315.78 142.469 1311.91 148.08 1309.28 155.253C1306.66 162.426 1305.34 170.736 1305.34 180.182C1305.34 189.699 1306.66 198.115 1309.28 205.43C1311.98 212.675 1315.85 218.357 1320.9 222.476C1326.01 226.524 1332.29 228.548 1339.75 228.548Z" fill="black"/>
</svg>
