<svg width="262" height="278" viewBox="0 0 262 278" fill="none" xmlns="http://www.w3.org/2000/svg">
<g clip-path="url(#clip0_152_63)">
<path d="M34.3359 277.5H227.578C250.898 277.5 261.914 270.234 261.914 254.531C261.914 215.039 212.109 158.32 130.898 158.32C49.8047 158.32 0 215.039 0 254.531C0 270.234 11.0156 277.5 34.3359 277.5ZM28.5938 257.93C22.8516 257.93 20.7422 256.406 20.7422 252.188C20.7422 224.883 60.4688 178.008 130.898 178.008C201.445 178.008 241.172 224.883 241.172 252.188C241.172 256.406 239.062 257.93 233.32 257.93H28.5938ZM131.133 138.398C166.641 138.398 195.234 107.109 195.234 68.3203C195.234 30.2344 166.641 0 131.133 0C95.7422 0 66.9141 30.7031 66.9141 68.5547C66.9141 107.227 95.625 138.398 131.133 138.398ZM131.133 118.828C107.344 118.828 87.6562 96.7969 87.6562 68.5547C87.6562 41.1328 107.227 19.5703 131.133 19.5703C155.039 19.5703 174.492 40.7812 174.492 68.3203C174.492 96.5625 154.922 118.828 131.133 118.828Z" fill="black" fill-opacity="0.85"/>
</g>
<defs>
<clipPath id="clip0_152_63">
<rect width="261.914" height="277.617" fill="white"/>
</clipPath>
</defs>
</svg>
