<svg width="381" height="347" viewBox="0 0 381 347" fill="none" xmlns="http://www.w3.org/2000/svg">
<g clip-path="url(#clip0_153_87)">
<path d="M3.6583 224.601C8.49229 229.728 15.963 229.581 20.9434 224.601L54.1954 191.349C179 66.5444 238.912 7.65763 262.35 30.9487C279.342 47.9408 241.549 92.6186 188.815 155.021C138.424 214.347 83.1993 275.724 120.113 312.931C150.875 343.986 201.559 307.365 253.854 255.949C293.844 216.398 324.02 188.859 334.713 199.406C343.502 208.195 332.369 225.04 316.988 251.847C298.824 283.341 276.852 315.714 297.506 336.515C313.473 352.335 341.158 343.107 375.582 307.365C381.734 301.212 381.881 293.888 376.754 288.908C371.773 283.927 364.596 284.074 359.322 289.054C332.955 313.956 318.453 322.599 313.18 317.179C307.174 311.32 314.938 297.99 335.299 264.591C360.934 222.55 368.99 199.113 352.438 182.56C330.172 160.294 296.627 179.923 235.982 238.224C179.44 292.423 151.168 309.122 137.398 295.646C120.846 279.386 142.818 244.669 207.125 170.841C282.857 83.3901 308.492 42.5209 279.488 13.6635C243.014 -22.8111 202.731 8.24358 36.9102 174.064L3.6583 207.316C-1.32217 212.296 -1.0292 219.621 3.6583 224.601Z" fill="black" fill-opacity="0.85"/>
</g>
<defs>
<clipPath id="clip0_153_87">
<rect width="380.412" height="346.516" fill="white"/>
</clipPath>
</defs>
</svg>
